<?xml version="1.0" encoding="utf-8"?>
<!-- Generator: Adobe Illustrator 23.0.2, SVG Export Plug-In . SVG Version: 6.00 Build 0)  -->
<svg version="1.1" id="MW LOGO" xmlns="http://www.w3.org/2000/svg" xmlns:xlink="http://www.w3.org/1999/xlink" x="0px" y="0px"
	 viewBox="0 0 2500 2500" style="enable-background:new 0 0 2500 2500;" xml:space="preserve">
<style type="text/css">
	.st0{fill:#FFFFFF;}
</style>
<path d="M45.91,1067.32c0,0-16.23-49.29,7.61-81.51c20.68-27.95,45.19-38.16,65.21-48.9c19.08-10.24,80.08-33.63,96.72-39.12
	c22.16-7.32,64.12-4.35,83.68,7.61c19.56,11.95,39.12,31.52,46.73,49.99c7.61,18.48,160.84,422.75,160.84,422.75l170.62-290.17
	c0,0,36.95-55.43,94.55-51.44c53.15,3.68,85.85,47.09,95.63,63.39c9.78,16.3,167.36,267.35,167.36,267.35l302.12-703.14
	c0,0,42.38-90.2,111.94-81.51c69.55,8.69,99.98,72.81,108.68,84.77c8.69,11.95,183.66,284.73,183.66,284.73l208.66-355.37
	c0,0,46.73-67.38,107.59-57.6c60.86,9.78,84.77,63.03,97.81,96.72c13.04,33.69,293.43,772.69,293.43,772.69s42.13,99.5-23.91,142.37
	c-61.95,40.21-101.75,60.57-142.6,62.61c-40.22,2.01-94.32-23.49-112.79-60.44c-16.53-33.06-169.54-431.45-169.54-431.45
	l-167.36,287.99c0,0-34.78,56.51-84.77,56.51s-76.07-19.56-96.72-47.82c-20.65-28.26-180.4-280.39-180.4-280.39l-309.73,718.36
	c0,0-35.86,64.12-88.03,63.03s-81.51-17.39-111.94-59.77c-30.43-42.38-195.62-306.47-195.62-306.47l-221.7,366.26
	c0,0-29.34,45.63-82.59,42.37c-53.25-3.26-77.16-16.3-99.98-57.6L45.91,1067.32z"/>
<polygon class="st0" points="146.98,1039.61 245.33,1001.03 486.77,1625.92 769.33,1143.39 1053.34,1598.39 1446.03,689.85 
	1745.98,1157.88 2044.48,649.28 2360.37,1469.43 2260.38,1511.45 2016.95,872.43 1738.73,1359.3 1450.38,899.96 1063.49,1815.74 
	764.99,1347.71 460.69,1856.32 "/>
</svg>
